# xmcd
#
# Track frame offsets: 
#        150
#        24068
#        45335
#        68335
#        87625
#        112670
#        151795
#
# Disc length: 2346 seconds
#
# Revision: 2
# Processed by: cddbd v1.5.2PL0 Copyright (c) Steve Scherf et al.
# Submitted via: ExactAudioCopy v0.99pb3
#
DISCID=3b092807
DTITLE=Buddy Guy - Hold That Plane!
DYEAR=1972
DGENRE=Blues
TTITLE0=Watermelon Man
TTITLE1=Hold That Plane
TTITLE2=I'm Ready
TTITLE3=My Time After Awhile
TTITLE4=You Don't Love Me
TTITLE5=Come See About Me
TTITLE6=Hello San Francisco
EXTD=
EXTT0=
EXTT1=
EXTT2=
EXTT3=
EXTT4=
EXTT5=
EXTT6=
PLAYORDER=
